<svg width="698" height="555" viewBox="0 0 698 555" fill="none" xmlns="http://www.w3.org/2000/svg">
<path d="M413.213 0.5H623.713L696.213 72.5H478.713L349.213 220L413.213 0.5Z" fill="white" stroke="#281942"/>
<path d="M284.213 0.5H73.7129L1.21289 72.5H218.713L348.213 220L284.213 0.5Z" fill="white" stroke="#281942"/>
<path d="M221.213 338V229.5L349.713 374L475.713 232.5V341L348.713 484L221.213 338Z" fill="white" stroke="#281942"/>
<path d="M129.713 103.5H30.7129L83.7129 193.5L15.2129 554H195.213L260.713 486L129.713 485.5V103.5Z" fill="white" stroke="#281942"/>
<path d="M567.713 103.5H666.713L613.713 193.5L682.213 554H502.213L436.713 486L567.713 485.5V103.5Z" fill="white" stroke="#281942"/>
</svg>
